<?xml version="1.0" encoding="UTF-8"?>
<svg id="_图层_1" data-name="图层 1" xmlns="http://www.w3.org/2000/svg" viewBox="0 0 474.67 232.38">
  <defs>
    <style>
      .cls-1 {
        fill: #23165c;
      }
    </style>
  </defs>
  <path class="cls-1" d="M222.41,43.08c4.3,22.87-10.45,45.1-33.34,49.92-7.11,1.5-14.18,1.13-20.71-.75-.2-.04-.4-.09-.6-.14-2.57-2.68-5.41-5.17-8.55-7.4-27.16-19.31-64.83-12.96-84.14,14.2-19.31,27.16-12.96,64.83,14.2,84.14,3.54,2.51,7.25,4.59,11.08,6.25-18.84-20.53-21.46-52.11-4.66-75.73,16.63-23.39,46.88-31.33,72.3-20.76,2.39,3.33,5.36,6.32,8.91,8.8,16.82,11.72,39.96,7.59,51.68-9.23,10.98-15.75,8.05-37.05-6.18-49.32Z"/>
  <path class="cls-1" d="M132.8,135.56c-2.18,0-4.3,.43-6.31,1.27-2.02,.85-3.88,1.99-5.54,3.4-1.66,1.41-3.07,3.07-4.21,4.93-1.14,1.86-1.91,3.91-2.29,6.09l-6.55,37.17h14.28l6.96-39.47c.2-1.16,.78-2.17,1.72-3,.94-.84,2.01-1.26,3.18-1.26h22.19l1.61-9.13h-25.04Z"/>
  <path class="cls-1" d="M201.07,135.56l-7,39.69c-.21,1.16-.78,2.16-1.72,2.95-.93,.79-2,1.2-3.16,1.2h-14.14c-1.17,0-2.09-.4-2.74-1.2-.65-.79-.88-1.78-.68-2.95l7-39.69h-14.28l-6.59,37.39c-.37,2.11-.32,4.12,.16,5.98,.48,1.87,1.29,3.53,2.42,4.94,1.12,1.41,2.58,2.53,4.34,3.34h0c1.75,.81,3.71,1.22,5.82,1.22h19.95c2.18,0,4.3-.41,6.31-1.22,2.01-.81,3.87-1.93,5.52-3.34,1.66-1.41,3.09-3.07,4.27-4.94,1.17-1.86,1.95-3.87,2.32-5.97l6.59-37.39h-14.39Z"/>
  <path class="cls-1" d="M324.82,145.01c-.51-1.9-1.34-3.56-2.47-4.94-1.13-1.37-2.57-2.48-4.3-3.29-1.72-.81-3.7-1.22-5.87-1.22h-20.83c-2.11,0-4.21,.41-6.26,1.22-2.04,.81-3.9,1.92-5.51,3.28-1.61,1.37-3.01,3.03-4.15,4.93-1.14,1.9-1.91,3.93-2.28,6.04l-3.81,21.59c-.37,2.11-.32,4.12,.16,5.98,.48,1.86,1.29,3.5,2.42,4.88,1.13,1.37,2.59,2.5,4.35,3.34,1.75,.84,3.7,1.27,5.81,1.27h20.83c2.18,0,4.3-.43,6.31-1.27,2.02-.85,3.86-1.97,5.47-3.34,1.62-1.37,3.03-3.02,4.21-4.89,1.17-1.86,1.95-3.87,2.32-5.97l3.81-21.59c.37-2.11,.3-4.14-.21-6.03Zm-13.69,3.84l-4.58,25.98c-.22,1.24-.8,2.27-1.74,3.06-.94,.79-2.04,1.2-3.27,1.2h-14.91c-1.16,0-2.1-.4-2.79-1.19-.7-.79-.94-1.83-.72-3.07l4.58-25.98c.21-1.16,.8-2.18,1.78-3.01s2.06-1.25,3.23-1.25h14.91c1.24,0,2.2,.42,2.85,1.26,.64,.83,.86,1.84,.66,3Z"/>
  <path class="cls-1" d="M346.06,148.95c.2-1.16,.78-2.17,1.72-3,.94-.84,2.01-1.26,3.18-1.26h35.2l1.59-9.02h-38.27c-2.11,0-4.19,.41-6.2,1.22-2.01,.81-3.85,1.92-5.46,3.29-1.61,1.37-3.01,3.01-4.14,4.88-1.14,1.86-1.9,3.87-2.27,5.98-.36,2.04-.3,4.01,.18,5.87,.48,1.86,1.29,3.5,2.42,4.88,1.13,1.37,2.58,2.48,4.3,3.28,1.72,.81,3.66,1.22,5.77,1.22h20.72c1.17,0,2.09,.42,2.74,1.26,.64,.83,.86,1.84,.66,3l-.83,4.71c-.21,1.17-.78,2.16-1.72,2.95-.93,.79-2,1.2-3.16,1.2h-36.62l-1.59,9.02h39.69c2.11,0,4.2-.39,6.19-1.17,2-.77,3.83-1.87,5.44-3.28,1.62-1.41,3.02-3.05,4.15-4.89,1.13-1.83,1.89-3.82,2.26-5.92l.12-.66c.37-2.1,.32-4.12-.16-5.98-.48-1.87-1.3-3.51-2.42-4.88-1.13-1.37-2.58-2.47-4.3-3.29-1.72-.81-3.66-1.22-5.77-1.22h-20.72c-1.17,0-2.09-.4-2.74-1.2-.65-.79-.88-1.79-.68-2.95l.72-4.06Z"/>
  <polygon class="cls-1" points="274.28 135.56 259.4 135.56 247.29 148.43 253.04 158.23 274.28 135.56"/>
  <polygon class="cls-1" points="250.35 161.11 235.37 135.56 220.63 135.56 235.45 161.12 210.02 188.32 224.9 188.32 241.18 170.87 251.41 188.32 266.29 188.32 250.34 161.12 250.35 161.11"/>
</svg>