<svg id="图层_1" data-name="图层 1" xmlns="http://www.w3.org/2000/svg" viewBox="0 0 166.37 153.96"><defs><style>.cls-1{fill:#105da7;}</style></defs><title>矽望logo</title><circle class="cls-1" cx="156.28" cy="24.78" r="10.09"/><path class="cls-1" d="M353.12,284.66a9.2,9.2,0,0,0-1.07,1.51,9.39,9.39,0,0,0,.32,10l.28.37L354.3,299a24.63,24.63,0,0,0,12.59,9.53c.41.14.83.26,1.25.38.73.2,1.47.36,2.22.5s1.33.22,2,.28l.36,0a24.82,24.82,0,0,0,4.31,0l.67-.07a24.79,24.79,0,0,0,3.5-.66c.45-.12.9-.23,1.34-.37a25.53,25.53,0,0,0,5.81-2.72A21,21,0,0,1,376,297.25l-8-11.67a9.46,9.46,0,0,0-13.13-2.52A9.35,9.35,0,0,0,353.12,284.66Z" transform="translate(-350.76 -177.08)"/><path class="cls-1" d="M469,241.84c.34.07.68,0,1,.14a10.84,10.84,0,0,0,11.63-3.69,10.68,10.68,0,0,0-5.35-16.61c-.37-.12-.73-.22-1.1-.32a39.83,39.83,0,0,0-40.28,12.06c-.55.64-1.07,1.29-1.58,2l-.72.95a39.22,39.22,0,0,0-6,32.62A32.41,32.41,0,0,1,469,241.84Z" transform="translate(-350.76 -177.08)"/><path class="cls-1" d="M418.08,297.38a69.17,69.17,0,0,1-11.19-19.05,57.69,57.69,0,0,1-2.94-40.7,55.88,55.88,0,0,1,14.8-24.52,56.48,56.48,0,0,1,48.64-15,10.08,10.08,0,0,0,11.41-7.42h0a10.18,10.18,0,0,0-8.17-12.6,77,77,0,1,0,36.21,135.59l.38-.33,6.1-5.08h0c.2-.17.35-.37.53-.55A69.2,69.2,0,0,1,418.08,297.38Z" transform="translate(-350.76 -177.08)"/></svg>